# xmcd
#
# Track frame offsets:
#	150
#	15807
#	42132
#	60802
#	79510
#	109040
#	123765
#	138207
#	151407
#	163367
#	179132
#	195265
#	206957
#	220217
#	230955
#	246145
#	258165
#	267367
#	280262
#	291145
#	305385
#	312967
#	328712
#	341215
#
# Disc length: 4712 seconds
#
# Revision: 0
# Processed by: cddbd v1.4PL0 Copyright (c) Steve Scherf et al.
# Submitted via: audiograbber 1.80
#
DISCID=5a126618
DTITLE=Friedrich Hollaender - Wenn ich mir was wünschen dürfte CD1
DYEAR=1900
DGENRE=
TTITLE0=Orchester Marek Weber - Jonny
TTITLE1=Paul Graetz - Wenn der alte Motor wieder tackt, 1&2
TTITLE2=Blandine Ebinger - Der Groschen
TTITLE3=Blandine Ebinger . Wenn ich mal tot bin
TTITLE4=Paul Graetz - Das ist der Herzschlag, der Zusammenhält, 1&2
TTITLE5=Orchester Marek Weber - Liliput
TTITLE6=Claire Waldoff - Jonny
TTITLE7=Claire Waldoff - Dornröschen aus'm Wedding
TTITLE8=Charlie's Jazz -Orchester - Ich tanz' Charleston
TTITLE9=Blandine Ebinger - Das Currenmädchen
TTITLE10=Blandine Ebinger - O Mond
TTITLE11=Blandine Ebinger - Die Hungerkünstlerin
TTITLE12=Blandine Ebinger - Das Wunderkind
TTITLE13=Giusto Jazz-Symphoniker - Ich spiel so gern mit dir Klavier
TTITLE14=Claire Waldoff - Raus mit den Männern!
TTITLE15=Claire Waldoff - O wie praktisch
TTITLE16=Blandine Ebinger - Die hysterische Ziege
TTITLE17=Blandine Ebinger - Der Schiesshund
TTITLE18=Paul Graetz - Mit der Hand über'n Alexanderplatz
TTITLE19=Trude Hesterberg - Die Herren Männer
TTITLE20=Kate Kühl - Lene Levi
TTITLE21=Paul Graetz - Das ist bei mir so
TTITLE22=Blandine Ebinger - Der TAler
TTITLE23=Blandine Ebinger - Die Trommlerin als Schiessbudenfigur
EXTD=
EXTT0=
EXTT1=
EXTT2=
EXTT3=
EXTT4=
EXTT5=
EXTT6=
EXTT7=
EXTT8=
EXTT9=
EXTT10=
EXTT11=
EXTT12=
EXTT13=
EXTT14=
EXTT15=
EXTT16=
EXTT17=
EXTT18=
EXTT19=
EXTT20=
EXTT21=
EXTT22=
EXTT23=
PLAYORDER=
